<?xml version="1.0" standalone="no"?>
<!DOCTYPE svg PUBLIC "-//W3C//DTD SVG 20010904//EN"
 "http://www.w3.org/TR/2001/REC-SVG-20010904/DTD/svg10.dtd">
<svg version="1.0" xmlns="http://www.w3.org/2000/svg"
 height="20.000000pt" viewBox="0 0 50.000000 50.000000"
 preserveAspectRatio="xMidYMid meet">

<g transform="translate(0.000000,50.000000) scale(0.100000,-0.100000)"
fill="white" stroke="none">
<path d="M130 409 c-109 -86 -143 -120 -106 -106 14 6 16 -8 16 -128 l0 -135
210 0 210 0 0 135 c0 120 2 134 16 128 38 -14 3 21 -106 106 -63 50 -117 91
-120 91 -3 0 -57 -41 -120 -91z m38 -81 c7 -7 12 -20 12 -30 0 -16 10 -18 95
-18 52 0 95 -2 95 -4 0 -2 -10 -29 -21 -60 l-22 -56 -53 0 c-75 0 -68 -18 9
-22 59 -3 62 -4 62 -28 0 -33 -44 -42 -52 -11 -7 27 -19 27 -26 0 -4 -15 -12
-20 -28 -17 -20 3 -27 17 -54 118 l-31 115 -32 -1 c-21 -1 -32 3 -32 12 0 18
61 19 78 2z"/>
<path d="M230 110 c0 -5 5 -10 10 -10 6 0 10 5 10 10 0 6 -4 10 -10 10 -5 0
-10 -4 -10 -10z"/>
<path d="M310 110 c0 -5 5 -10 10 -10 6 0 10 5 10 10 0 6 -4 10 -10 10 -5 0
-10 -4 -10 -10z"/>
</g>
</svg>
